<svg id="Layer_1" data-name="Layer 1" xmlns="http://www.w3.org/2000/svg" viewBox="0 0 160.21 212.59"><defs><style>.cls-1{fill:#8270fe;}.cls-2{fill:#0c0b18;}.cls-3{fill:#f2ff49;}.cls-4{fill:#fff;}.cls-5{stroke:#000;stroke-linecap:round;stroke-linejoin:round;stroke-width:4px;}</style></defs><title>JS_final</title><path class="cls-1" d="M149.55,110.25a1.74,1.74,0,0,1,0-.2l0-.15c0.43-1.52,5.1-18.55,5.1-30.79a74.61,74.61,0,0,0-149.21,0c0,12.55,4.91,30.13,5.12,30.89a2,2,0,0,1,0,1.17c-5.37,16.38-5.88,40.27,2.55,51.9,3.15,4.35,7.11,6.46,12.12,6.46a14,14,0,0,0,9.94-4l0.86-.82-0.6-1c-6.8-11.64-6.22-29.47-6.19-30.22a2,2,0,0,1,4,.15c0,0.22-.7,22.34,8.42,31.78a13,13,0,0,0,9.79,4.14A18.62,18.62,0,0,0,62.9,166l1.1-.82L63.28,164c-7.18-11.64-6.86-29.76-6.84-30.52a2,2,0,1,1,4,.09c0,0.91-.29,22.4,8.91,31.79a13.19,13.19,0,0,0,9.88,4.16A15.47,15.47,0,0,0,90.68,165l0.84-.83-0.62-1a43.48,43.48,0,0,1-4.32-10,80,80,0,0,1-3.11-19.48,2,2,0,0,1,.56-1.42,2,2,0,0,1,3.44,1.36,77.18,77.18,0,0,0,3,18.51c3.52,11.54,9.33,17.39,17.29,17.39a13.42,13.42,0,0,0,10.77-5.34l0.63-.77-0.46-.88c-6.13-11.59-6.44-28.16-6.45-28.86a2,2,0,0,1,4-.06,88.56,88.56,0,0,0,2.51,17.7c3.9,15,10.72,18.21,15.75,18.21,5.58,0,9.9-2.35,13.21-7.19,7.94-11.59,7.59-36.45,2-51l0-.13a1.57,1.57,0,0,1,0-.18l-0.06-.47a1,1,0,0,1,0-.21Z"/><path class="cls-2" d="M160.21,80.11A80.11,80.11,0,1,0,0,80.11C0,92,3.93,107.34,5,111.47c-5.42,17.42-6,42.54,3.65,55.82A19.88,19.88,0,0,0,25.26,176a19.37,19.37,0,0,0,13.24-5.09,18.38,18.38,0,0,0,13,5.09,23.67,23.67,0,0,0,15-4.83A18.59,18.59,0,0,0,79.22,176,21,21,0,0,0,94,170.46,19.4,19.4,0,0,0,107.74,176a18.43,18.43,0,0,0,13.75-5.82,17.13,17.13,0,0,0,13,5.82,20.8,20.8,0,0,0,17.75-9.58c9.87-14.42,8.09-40.73,2.95-55.06C156.33,107.15,160.21,91.91,160.21,80.11ZM134.49,169c-15.79,0-16.76-34.08-16.76-34.43a3.5,3.5,0,0,0-3.5-3.45h-0.05a3.5,3.5,0,0,0-3.45,3.55c0,1.08.36,17.71,6.62,29.54a12,12,0,0,1-9.61,4.78c-7.21,0-12.55-5.49-15.85-16.33A75.75,75.75,0,0,1,89,134.59a3.5,3.5,0,0,0-3.5-3.44H85.41A3.5,3.5,0,0,0,82,134.71a81.65,81.65,0,0,0,3.17,19.89A44.62,44.62,0,0,0,89.62,165,14,14,0,0,1,79.22,169a11.76,11.76,0,0,1-8.8-3.71c-8.8-9-8.49-30.39-8.48-30.72a3.5,3.5,0,1,0-7-.15c0,0.88-.32,19.36,7.07,31.34A17.06,17.06,0,0,1,51.47,169a11.54,11.54,0,0,1-8.71-3.68c-8.67-9-8-30.47-8-30.69a3.5,3.5,0,0,0-7-.26c0,0.87-.61,19,6.4,31a12.48,12.48,0,0,1-8.91,3.6c-4.49,0-8.05-1.91-10.9-5.84C8,154.35,5.34,133,12,112.63a3.49,3.49,0,0,0,0-2.05C12,110.4,7,92.66,7,80.11a73.11,73.11,0,1,1,146.21,0c0,12.56-5,30.3-5.07,30.47s0,0.06,0,.09a3.49,3.49,0,0,0-.07.38c0,0.1,0,.2,0,0.3a3.47,3.47,0,0,0,0,.35c0,0.11,0,.23,0,0.34s0,0.2.07,0.31a3.48,3.48,0,0,0,.1.37s0,0.06,0,.09c5.5,14.19,5.91,38.45-1.79,49.69C143.45,166.89,139.53,169,134.49,169Z"/><path d="M71.95,40.14s0.15,0.08.41,0.24l1.08,0.68c0.43,0.28,1,.56,1.54.92s1.24,0.63,1.89.93a14.86,14.86,0,0,0,2.07.7,18.06,18.06,0,0,0,2.23.45c0.78,0.12,1.63.18,2.52,0.27s1.84,0.13,2.81.16l1.65,0.07c0.56,0,1.11.1,1.67,0.16a19.38,19.38,0,0,1,2.16.4,13.74,13.74,0,0,1,1.94.64,13.18,13.18,0,0,1,3.44,2,11.08,11.08,0,0,1,2.35,2.68,10.19,10.19,0,0,1,.71,1.35c0.16,0.45.33,0.87,0.42,1.27a9.18,9.18,0,0,1,.36,2,10.84,10.84,0,0,1,0,1.3c0,0.3,0,.47,0,0.47l-0.44.24L100,55.8a14.27,14.27,0,0,0-2.43-3.13,10.35,10.35,0,0,0-2.1-1.55A12,12,0,0,0,92.73,50c-0.48-.16-1-0.21-1.52-0.32s-1-.12-1.58-0.18c-1.12,0-2.21-.06-3.36-0.07a29.88,29.88,0,0,1-3.39-.38,18.77,18.77,0,0,1-3.22-.84,13.5,13.5,0,0,1-5-3.15,14.54,14.54,0,0,1-1.5-1.82c-0.39-.58-0.71-1.09-1-1.53s-0.41-.78-0.54-1l-0.19-.36Z"/><path d="M53.91,52.25l-0.36.14c-0.23.07-.58,0.22-1,0.32a11.5,11.5,0,0,0-1.44.44l-1.62.53-3.74,1.13c-0.65.15-1.28,0.43-1.94,0.55s-1.3.34-1.91,0.58-1.24.39-1.87,0.52S38.8,56.8,38.26,57s-1.12.37-1.69,0.55c-0.3.08-.51,0.21-0.79,0.3a6.2,6.2,0,0,0-.78.31,13.84,13.84,0,0,0-1.42.68,10.92,10.92,0,0,0-1.2.7c-0.3.23-.63,0.42-0.82,0.56l-0.33.22-0.49-.12,0.34-1.15a7.36,7.36,0,0,1,.54-1.27,8,8,0,0,1,.95-1.52,5.87,5.87,0,0,1,.66-0.78A10.65,10.65,0,0,1,34,54.7a14.46,14.46,0,0,1,1.87-1.43A17.58,17.58,0,0,1,38.06,52a20.94,20.94,0,0,1,2.43-.9A22.65,22.65,0,0,1,43,50.58a24.46,24.46,0,0,1,2.49-.22l1.19,0,1.14,0.06a18.06,18.06,0,0,1,2.08.23,12.2,12.2,0,0,1,1.74.37,9.56,9.56,0,0,1,1.29.39l1.1,0.39Z"/><path d="M44,60.68c6.86-2.09,25.18,2.87,23.93,20.06s-6,24.19-20.75,26.94-17.75-19-17.25-33S39.07,62.18,44,60.68Z"/><path class="cls-3" d="M65.3,78.44a0.54,0.54,0,0,0,.56-0.62C64,65.83,50.27,63.39,44.49,64c-9.39,1-12,10.19-12.57,12.68a0.53,0.53,0,0,0,.5.64c1.54,0,5.77.58,10.67,0.66C49.46,78.12,57,77.78,61.6,78,63.19,78,64.6,78.4,65.3,78.44Z"/><path class="cls-4" d="M34.22,82.6a0.64,0.64,0,0,0-.68.68c0.69,11.1,4.25,23.43,14.66,21.49,11.8-2.2,16.11-7.6,17.49-20.33a0.65,0.65,0,0,0-.62-0.72c-1.09,0-3.37-.37-6.23-0.46-4.65-.15-10.9.49-16,0.29C38.87,83.4,35.62,82.68,34.22,82.6Z"/><path d="M47.56,86.38c-1,1.08-3.25,2.35-4,2.16-2.57-.6-3.12-0.93-4-3a7.07,7.07,0,0,1-.28-0.77c-0.63-1.82,1.15-2.24,1.92-3.44a4.66,4.66,0,0,1,4.22-1.66A3.12,3.12,0,0,1,46.91,81C47.21,81.77,48.6,85.3,47.56,86.38Z"/><path class="cls-1" d="M71.82,99.1c-5.16-3-17.31-.81-18,5.18-1.13,9.33,9,10.77,17.83,10.2"/><path d="M68.35,116.59c-6.69,0-11.44-1.44-14.15-4.31A9.73,9.73,0,0,1,51.8,104c0.31-2.6,2.17-4.86,5.23-6.37,5-2.45,11.9-2.58,15.8-.29a2,2,0,1,1-2,3.45c-2.71-1.59-8.32-1.39-12,.43-1,.52-2.83,1.63-3,3.27a5.85,5.85,0,0,0,1.33,5c2.23,2.35,7.34,3.41,14.39,3a2,2,0,0,1,.26,4Q70,116.59,68.35,116.59Z"/><path d="M75,59.68c6.86-2.09,25.18,2.87,23.93,20.06s-6,24.19-20.75,26.94-17.75-19-17.25-33S70.07,61.18,75,59.68Z"/><path class="cls-3" d="M96.3,77.44a0.54,0.54,0,0,0,.56-0.62C95,64.83,81.27,62.39,75.49,63c-9.39,1-12,10.19-12.57,12.68a0.53,0.53,0,0,0,.5.64c1.54,0,5.77.58,10.67,0.66C80.46,77.12,88,76.78,92.6,77,94.19,77,95.6,77.4,96.3,77.44Z"/><path class="cls-4" d="M65.22,81.6a0.64,0.64,0,0,0-.68.68c0.69,11.1,4.25,23.43,14.66,21.49,11.8-2.2,16.11-7.6,17.49-20.33a0.65,0.65,0,0,0-.62-0.72c-1.09,0-3.37-.37-6.23-0.46-4.65-.15-10.9.49-16,0.29C69.87,82.4,66.62,81.68,65.22,81.6Z"/><path d="M78.56,85.38c-1,1.08-3.25,2.35-4,2.16-2.57-.6-3.12-0.93-4-3a7.07,7.07,0,0,1-.28-0.77c-0.63-1.82,1.15-2.24,1.92-3.44a4.66,4.66,0,0,1,4.22-1.66A3.12,3.12,0,0,1,77.91,80C78.21,80.77,79.6,84.3,78.56,85.38Z"/><path class="cls-5" d="M33.38,204.91s1.46-.5,4-1.14,6.21-1.44,10.59-2.14,9.49-1.34,15-1.76,11.32-.64,17.16-0.65,11.68,0.21,17.16.63,10.59,1,15,1.75,8,1.5,10.59,2.15,4,1.14,4,1.14-1.46.5-4,1.14-6.21,1.44-10.59,2.15-9.49,1.34-15,1.75-11.32.63-17.16,0.63-11.68-.22-17.16-0.65-10.59-1.05-15-1.76-8-1.5-10.59-2.14S33.38,204.91,33.38,204.91Z"/></svg>